<?xml version="1.0" encoding="utf-8"?>
<!-- Generator: Adobe Illustrator 19.0.0, SVG Export Plug-In . SVG Version: 6.00 Build 0)  -->
<svg version="1.1" id="Layer_1" xmlns="http://www.w3.org/2000/svg" xmlns:xlink="http://www.w3.org/1999/xlink" x="0px" y="0px"
	 viewBox="-9 16.7 38 24" style="enable-background:new -9 16.7 38 24;" xml:space="preserve">
<style type="text/css">
	.st0{fill:#3E8D93;}
</style>
<path id="XMLID_25_" class="st0" d="M17.3,17.2c-6.2,0-11.2,4.9-11.5,11H-8.8v1H5.8c0.3,6.1,5.3,11,11.5,11
	c6.3,0,11.5-5.2,11.5-11.5C28.8,22.4,23.6,17.2,17.3,17.2z M17.3,39.2c-5.6,0-10.2-4.4-10.5-10h12.4l-4.8,4L15,34l6.3-5.2L15,23.5
	l-0.6,0.8l4.8,4H6.8c0.3-5.6,4.9-10,10.5-10c5.8,0,10.5,4.7,10.5,10.5C27.8,34.5,23.1,39.2,17.3,39.2z"/>
</svg>
