<?xml version="1.0" encoding="UTF-8"?>
<svg width="38px" height="24px" viewBox="0 0 38 24" version="1.1" xmlns="http://www.w3.org/2000/svg" xmlns:xlink="http://www.w3.org/1999/xlink" xmlns:sketch="http://www.bohemiancoding.com/sketch/ns">
    <!-- Generator: Sketch 3.3.3 (12072) - http://www.bohemiancoding.com/sketch -->
    <title>Untitled</title>
    <desc>Created with Sketch.</desc>
    <defs></defs>
    <g id="Page-1" stroke="none" stroke-width="1" fill="none" fill-rule="evenodd" sketch:type="MSPage">
        <g id="btn-arrow-right-4" sketch:type="MSLayerGroup" transform="translate(19.000000, 12.000000) scale(-1, 1) translate(-19.000000, -12.000000) " fill="#3E8D93">
            <path d="M26.3,0.2 C20.1,0.2 15.1,5.1 14.8,11.2 L0.2,11.2 L0.2,12.2 L14.8,12.2 C15.1,18.3 20.1,23.2 26.3,23.2 C32.6,23.2 37.8,18 37.8,11.7 C37.8,5.4 32.6,0.2 26.3,0.2 L26.3,0.2 Z M26.3,22.2 C20.7,22.2 16.1,17.8 15.8,12.2 L28.2,12.2 L23.4,16.2 L24,17 L30.3,11.8 L24,6.5 L23.4,7.3 L28.2,11.3 L15.8,11.3 C16.1,5.7 20.7,1.3 26.3,1.3 C32.1,1.3 36.8,6 36.8,11.8 C36.8,17.5 32.1,22.2 26.3,22.2 L26.3,22.2 Z" id="XMLID_25_" sketch:type="MSShapeGroup"></path>
        </g>
    </g>
</svg>