<?xml version="1.0" encoding="UTF-8"?>
<svg width="83px" height="109px" viewBox="0 0 83 109" version="1.1" xmlns="http://www.w3.org/2000/svg" xmlns:xlink="http://www.w3.org/1999/xlink" xmlns:sketch="http://www.bohemiancoding.com/sketch/ns">
    <!-- Generator: Sketch 3.3.3 (12072) - http://www.bohemiancoding.com/sketch -->
    <title>Fill 77_3</title>
    <desc>Created with Sketch.</desc>
    <defs></defs>
    <g id="Page-1" stroke="none" stroke-width="1" fill="none" fill-rule="evenodd" sketch:type="MSPage">
        <g id="How-It-Works" sketch:type="MSLayerGroup" transform="translate(-1305.000000, -562.000000)" fill="#011111">
            <g id="Group-83" transform="translate(334.000000, 560.000000)" sketch:type="MSShapeGroup">
                <path d="M1004.8896,110.8882 C994.0896,110.8882 981.3406,109.2382 971.7416,105.7882 L985.3906,73.0892 L985.6906,73.0892 L999.0396,105.7882 C999.7896,107.5882 1000.5396,107.8882 1002.4906,107.8882 L1003.9906,107.8882 C1011.6396,107.8882 1020.4896,98.5882 1020.4896,81.9392 C1020.4896,66.6402 1015.0886,58.3902 998.5896,54.9402 L998.5896,54.6402 C1012.5386,51.7902 1017.9396,41.8912 1017.9396,27.1922 C1017.9396,13.9922 1011.9396,5.8922 1005.7896,5.8922 C1005.3396,5.8922 1004.2896,5.8922 1003.3896,6.0422 C1002.1896,6.1932 1001.8896,6.7922 1001.2896,8.1422 L986.8906,41.8912 L986.5906,41.8912 L972.7906,12.0422 C981.9406,7.5422 996.9406,2.4432 1013.1396,2.4432 C1036.0886,2.4432 1050.4886,12.6422 1050.4886,28.9922 C1050.4886,43.9912 1041.0376,51.0402 1023.4896,54.1912 L1023.4896,54.4912 C1042.6886,56.4402 1053.9376,66.1902 1053.9376,80.1392 C1053.9376,98.1382 1038.6386,110.8882 1004.8896,110.8882" id="Fill-77"></path>
            </g>
        </g>
    </g>
</svg>