<?xml version="1.0" encoding="UTF-8"?>
<svg width="81px" height="108px" viewBox="0 0 81 108" version="1.1" xmlns="http://www.w3.org/2000/svg" xmlns:xlink="http://www.w3.org/1999/xlink" xmlns:sketch="http://www.bohemiancoding.com/sketch/ns">
    <!-- Generator: Sketch 3.3.3 (12072) - http://www.bohemiancoding.com/sketch -->
    <title>Fill 75_2</title>
    <desc>Created with Sketch.</desc>
    <defs></defs>
    <g id="Page-1" stroke="none" stroke-width="1" fill="none" fill-rule="evenodd" sketch:type="MSPage">
        <g id="How-It-Works" sketch:type="MSLayerGroup" transform="translate(-909.000000, -562.000000)" fill="#011111">
            <g id="Group-83" transform="translate(334.000000, 560.000000)" sketch:type="MSShapeGroup">
                <path d="M653.713,30.4917 C653.713,52.0907 632.414,65.5907 604.965,80.5897 L598.666,84.0397 L639.164,84.0397 C643.064,84.0397 643.363,83.8887 645.764,81.4897 L655.213,72.3397 L655.514,72.3397 L648.764,109.3877 L575.116,109.3877 L575.116,109.0887 L595.066,84.1887 C600.466,77.4397 604.665,71.4397 608.415,65.4397 C617.115,51.4907 620.265,42.0407 620.265,29.4417 C620.265,12.7927 614.715,5.8917 608.115,5.8917 C607.215,5.8917 606.615,5.8917 605.865,6.0427 C604.965,6.1927 604.516,6.7927 604.066,7.8427 L589.516,41.8907 L589.216,41.8907 L575.417,12.0427 C585.466,7.2427 600.615,2.4427 616.515,2.4427 C642.164,2.4427 653.713,14.8917 653.713,30.4917" id="Fill-75"></path>
            </g>
        </g>
    </g>
</svg>