<?xml version="1.0" encoding="utf-8"?>
<!-- Generator: Adobe Illustrator 19.0.0, SVG Export Plug-In . SVG Version: 6.00 Build 0)  -->
<svg version="1.1" id="Layer_1" xmlns="http://www.w3.org/2000/svg" xmlns:xlink="http://www.w3.org/1999/xlink" x="0px" y="0px"
	 viewBox="-278 408.9 38 24" style="enable-background:new -278 408.9 38 24;" xml:space="preserve">
<style type="text/css">
	.st0{fill:#97C4C6;}
</style>
<path id="XMLID_25_" class="st0" d="M-251.7,409.4c-6.2,0-11.2,4.9-11.5,11h-14.6v1h14.6c0.3,6.1,5.3,11,11.5,11
	c6.3,0,11.5-5.2,11.5-11.5C-240.2,414.6-245.4,409.4-251.7,409.4z M-251.7,431.4c-5.6,0-10.2-4.4-10.5-10h12.4l-4.8,4l0.6,0.8
	l6.3-5.2l-6.3-5.3l-0.6,0.8l4.8,4h-12.4c0.3-5.6,4.9-10,10.5-10c5.8,0,10.5,4.7,10.5,10.5C-241.2,426.7-245.9,431.4-251.7,431.4z"/>
</svg>
