<?xml version="1.0" encoding="utf-8"?>
<!-- Generator: Adobe Illustrator 19.0.0, SVG Export Plug-In . SVG Version: 6.00 Build 0)  -->
<svg version="1.1" id="Layer_1" xmlns="http://www.w3.org/2000/svg" xmlns:xlink="http://www.w3.org/1999/xlink" x="0px" y="0px"
	 viewBox="0 0 56.7 56.7" style="enable-background:new 0 0 56.7 56.7;" xml:space="preserve">
<style type="text/css">
	.st0{fill:#FFFFFF;}
</style>
<g id="XMLID_245_">
	<g id="XMLID_289_">
		<g id="XMLID_290_">
			<path id="XMLID_291_" class="st0" d="M28.3,7.6c6.7,0,7.5,0,10.2,0.1c6.8,0.3,10,3.6,10.4,10.4c0.1,2.7,0.1,3.5,0.1,10.2
				c0,6.7,0,7.5-0.1,10.2c-0.3,6.8-3.5,10-10.4,10.4c-2.7,0.1-3.5,0.1-10.2,0.1c-6.7,0-7.5,0-10.2-0.1c-6.9-0.3-10-3.6-10.4-10.4
				c-0.1-2.7-0.1-3.5-0.1-10.2c0-6.7,0-7.5,0.1-10.2c0.3-6.8,3.5-10,10.4-10.4C20.8,7.7,21.6,7.6,28.3,7.6z M28.3,3.1
				c-6.9,0-7.7,0-10.4,0.2C8.8,3.7,3.7,8.7,3.2,17.9c-0.1,2.7-0.2,3.6-0.2,10.4s0,7.7,0.2,10.4C3.7,47.9,8.7,53,17.9,53.5
				c2.7,0.1,3.6,0.2,10.4,0.2s7.7,0,10.4-0.2C47.9,53,53,47.9,53.5,38.8c0.1-2.7,0.2-3.6,0.2-10.4s0-7.7-0.2-10.4
				C53,8.8,47.9,3.7,38.8,3.2C36.1,3.1,35.2,3.1,28.3,3.1z M28.3,15.4c-7.2,0-13,5.8-13,13s5.8,13,13,13s13-5.8,13-13
				C41.3,21.2,35.5,15.4,28.3,15.4z M28.3,36.8c-4.7,0-8.4-3.8-8.4-8.4c0-4.7,3.8-8.4,8.4-8.4s8.4,3.8,8.4,8.4
				C36.8,33,33,36.8,28.3,36.8z M41.8,11.8c-1.7,0-3,1.4-3,3s1.4,3,3,3c1.7,0,3-1.4,3-3S43.5,11.8,41.8,11.8z"/>
		</g>
	</g>
</g>
</svg>
