<?xml version="1.0" encoding="utf-8"?>
<!-- Generator: Adobe Illustrator 19.0.0, SVG Export Plug-In . SVG Version: 6.00 Build 0)  -->
<svg version="1.1" id="Layer_1" xmlns="http://www.w3.org/2000/svg" xmlns:xlink="http://www.w3.org/1999/xlink" x="0px" y="0px"
	 viewBox="0 0 56.7 56.7" style="enable-background:new 0 0 56.7 56.7;" xml:space="preserve">
<style type="text/css">
	.st0{fill:#FFFFFF;}
</style>
<g id="XMLID_262_">
	<path id="XMLID_263_" class="st0" d="M55,11.8c-2,0.9-4.1,1.5-6.3,1.7c2.3-1.4,4-3.5,4.8-6c-2.1,1.3-4.5,2.2-6.9,2.7
		c-2-2.1-4.8-3.5-8-3.5c-7.1,0-12.2,6.6-10.7,13.4c-9.1-0.5-17.1-4.8-22.5-11.4C2.5,13.6,3.9,20,8.8,23.3c-1.8-0.1-3.5-0.5-4.9-1.4
		c-0.1,5.1,3.5,9.8,8.8,10.9c-1.5,0.4-3.2,0.5-4.9,0.2c1.4,4.3,5.4,7.5,10.2,7.6c-4.6,3.6-10.4,5.2-16.2,4.5
		C6.5,48.2,12.3,50,18.5,50c20.3,0,31.8-17.1,31.1-32.5C51.7,15.9,53.5,14,55,11.8z"/>
</g>
</svg>
