<?xml version="1.0" encoding="utf-8"?>
<!-- Generator: Adobe Illustrator 19.0.0, SVG Export Plug-In . SVG Version: 6.00 Build 0)  -->
<svg version="1.1" id="Layer_1" xmlns="http://www.w3.org/2000/svg" xmlns:xlink="http://www.w3.org/1999/xlink" x="0px" y="0px"
	 viewBox="0 0 38 24" style="enable-background:new 0 0 38 24;" xml:space="preserve">
<style type="text/css">
	.st0{fill:#E8BC55;}
</style>
<path id="XMLID_25_" class="st0" d="M26.3,0.5c-6.2,0-11.2,4.9-11.5,11H0.2v1h14.6c0.3,6.1,5.3,11,11.5,11c6.3,0,11.5-5.2,11.5-11.5
	C37.8,5.7,32.6,0.5,26.3,0.5z M26.3,22.5c-5.6,0-10.2-4.4-10.5-10h12.4l-4.8,4l0.6,0.8l6.3-5.2L24,6.8l-0.6,0.8l4.8,4H15.8
	c0.3-5.6,4.9-10,10.5-10c5.8,0,10.5,4.7,10.5,10.5C36.8,17.8,32.1,22.5,26.3,22.5z"/>
</svg>
